<svg width="784" height="549" viewBox="0 0 784 549" fill="none" xmlns="http://www.w3.org/2000/svg">
<path d="M572.5 288L522.5 284.5L531.5 292.5L572.5 288Z" fill="#9D3802"/>
<path d="M334 256.5H251.5L220 284L300.5 298.5L334 256.5Z" fill="#D14B03"/>
<path d="M292 308.5L211.5 293.5L148 351.5H263.5L292 308.5Z" fill="#9D3802"/>
<path d="M568.5 252H486.5L508 274.5L600 283L568.5 252Z" fill="#9D3802"/>
<path d="M675.5 350.5L616 296.5L546 304L597 350.5H675.5Z" fill="#D14B03"/>
<path d="M531.5 303L432.5 323L537.5 349.5H578L531.5 303Z" fill="#D14B03"/>
<path d="M400 327.5L294 349.5H494L400 327.5Z" fill="#D14B03"/>
<path d="M370.5 322L308 308.5L285.5 342L370.5 322Z" fill="#9D3802"/>
<path d="M371.5 284H326L316 299.5L400 314.5L371.5 284Z" fill="#9D3802"/>
<path d="M367 276.5L350 255.5L331 276.5H367Z" fill="#9D3802"/>
<path d="M496.5 275.5L474 253L455 275.5H496.5Z" fill="#9D3802"/>
<path d="M516.5 294.5L425.5 311.5L449.5 285H507L516.5 294.5Z" fill="#D14B03"/>
<path d="M342 84.2129L309 77.7129C293 113.313 302.334 146.546 309 158.713C312.361 118.026 317.84 99.598 342 84.2129Z" fill="#757575"/>
<path d="M483 84.7129L516 78.2129C532 113.813 522.666 147.046 516 159.213C512.639 118.526 507.16 100.098 483 84.7129Z" fill="#757575"/>
<path d="M280.004 25.7291H252.504C247.363 26.9645 246.633 30.3477 246.004 37.2291V63.7129C247.825 72.4743 280.004 70.7129 280.004 65.7291C280.004 60.7454 358.504 83.7291 358.504 83.7291C361.962 97.69 368.361 102.485 392.504 102.229H432.504C449.608 102.885 456.284 98.4725 464.004 83.7291L539.004 63.7129C547.004 75.2129 572.004 70.6967 574.504 63.7129C575.757 60.2129 574.504 37.2291 574.504 37.2291L571.004 35.2129C570.656 28.1231 571.004 27.6359 567.504 25.7291C558.134 22.6296 552.229 22.6716 541.004 24.7291C537.854 29.3666 536.886 32.0534 537.004 37.2291L477.004 41.7291C454.88 21.7947 436.504 8.71292 404.504 9.72911C372.504 10.7453 359.244 23.3226 340.004 41.7291L280.004 37.2291C282.5 30.2129 280.004 25.7291 280.004 25.7291Z" fill="#757575" fill-opacity="0.99"/>
<path d="M341.5 49.2129L300 47.2129L341.5 53.2129L364 29.7129L341.5 49.2129Z" fill="#C9BABA" fill-opacity="0.47"/>
<path d="M477 46.7129L456.5 30.2129L477 51.7129L528 46.7129H477Z" fill="#D9D9D9" fill-opacity="0.24"/>
<path d="M463.5 49.7129H357L353.5 53.2129H467L463.5 49.7129Z" fill="#D9D9D9" fill-opacity="0.37"/>
<path d="M254.5 2.21289L173 9.21289L254.5 16.2129V2.21289Z" fill="#FF8B07"/>
<path d="M274 2.21289L355.5 9.21289L274 16.2129V2.21289Z" fill="#FF8B07"/>
<path d="M547.5 5.21289L466 12.2129L547.5 19.2129V5.21289Z" fill="#FF8B07"/>
<path d="M566 5.21289L647.5 12.2129L566 19.2129V5.21289Z" fill="#FF8B07"/>
<path d="M377.5 35.7137C396.5 24.2129 418.4 21.3137 440 35.7137C414 31.2139 405.5 30.2139 377.5 35.7137Z" fill="#D9D9D9" fill-opacity="0.22"/>
<circle cx="409" cy="87.2129" r="12" fill="#FF7F00" fill-opacity="0.62"/>
<path d="M256 3.2102C260.5 -0.28755 266 -1.78724 272.5 3.20983L273 16.2112H256V3.2102Z" fill="#323131"/>
<path d="M548.5 5.71327C553 2.21551 558.5 0.715826 565 5.71289L565.5 18.7142H548.5V5.71327Z" fill="#323131"/>
<path d="M482 189.625C482 249.312 410.5 309 410.5 309C410.5 309 339 249.312 339 189.625C339 170.629 346.533 152.411 359.942 138.978C373.351 125.546 391.537 118 410.5 118C429.463 118 447.649 125.546 461.058 138.978C474.467 152.411 482 170.629 482 189.625Z" fill="#D14B03"/>
<path d="M410.5 219.469C426.953 219.469 440.291 206.107 440.291 189.625C440.291 173.143 426.953 159.781 410.5 159.781C394.046 159.781 380.708 173.143 380.708 189.625C380.708 206.107 394.046 219.469 410.5 219.469Z" fill="white"/>
<circle cx="409" cy="89" r="5" fill="#EDEBEB" fill-opacity="0.36"/>
<path d="M79.0742 538L77.0039 531.203H66.5938L64.5234 538H58L68.0781 509.328H75.4805L85.5977 538H79.0742ZM75.5586 526.125L73.4883 519.484C73.3581 519.042 73.1823 518.475 72.9609 517.785C72.7526 517.082 72.5378 516.372 72.3164 515.656C72.1081 514.927 71.9388 514.296 71.8086 513.762C71.6784 514.296 71.4961 514.96 71.2617 515.754C71.0404 516.535 70.8255 517.277 70.6172 517.98C70.4089 518.684 70.2591 519.185 70.168 519.484L68.1172 526.125H75.5586ZM111.256 538H94.8109V509.445H111.256V514.406H100.866V520.676H110.534V525.637H100.866V533H111.256V538ZM131.153 509.445C133.744 509.445 135.88 509.758 137.559 510.383C139.252 511.008 140.509 511.952 141.329 513.215C142.149 514.478 142.559 516.073 142.559 518C142.559 519.302 142.312 520.441 141.817 521.418C141.322 522.395 140.671 523.221 139.864 523.898C139.057 524.576 138.184 525.129 137.247 525.559L145.645 538H138.927L132.11 527.043H128.888V538H122.833V509.445H131.153ZM130.723 514.406H128.888V522.121H130.841C132.846 522.121 134.278 521.789 135.138 521.125C136.01 520.448 136.446 519.458 136.446 518.156C136.446 516.802 135.977 515.839 135.04 515.266C134.115 514.693 132.677 514.406 130.723 514.406ZM154.839 538V509.445H160.894V538H154.839ZM191.162 538L189.091 531.203H178.681L176.611 538H170.088L180.166 509.328H187.568L197.685 538H191.162ZM187.646 526.125L185.576 519.484C185.446 519.042 185.27 518.475 185.048 517.785C184.84 517.082 184.625 516.372 184.404 515.656C184.196 514.927 184.026 514.296 183.896 513.762C183.766 514.296 183.584 514.96 183.349 515.754C183.128 516.535 182.913 517.277 182.705 517.98C182.496 518.684 182.347 519.185 182.255 519.484L180.205 526.125H187.646ZM206.898 538V509.445H212.953V533H224.535V538H206.898ZM267.962 530.07C267.962 531.763 267.552 533.234 266.731 534.484C265.911 535.734 264.713 536.698 263.137 537.375C261.575 538.052 259.674 538.391 257.434 538.391C256.445 538.391 255.475 538.326 254.524 538.195C253.587 538.065 252.682 537.876 251.809 537.629C250.95 537.368 250.13 537.049 249.348 536.672V531.047C250.703 531.646 252.109 532.186 253.567 532.668C255.026 533.15 256.471 533.391 257.903 533.391C258.893 533.391 259.687 533.26 260.286 533C260.898 532.74 261.341 532.382 261.614 531.926C261.887 531.47 262.024 530.949 262.024 530.363C262.024 529.647 261.783 529.035 261.302 528.527C260.82 528.02 260.156 527.544 259.309 527.102C258.476 526.659 257.532 526.184 256.477 525.676C255.813 525.363 255.091 524.986 254.309 524.543C253.528 524.087 252.786 523.534 252.083 522.883C251.38 522.232 250.8 521.444 250.345 520.52C249.902 519.582 249.68 518.462 249.68 517.16C249.68 515.454 250.071 513.996 250.852 512.785C251.634 511.574 252.747 510.65 254.192 510.012C255.651 509.361 257.369 509.035 259.348 509.035C260.833 509.035 262.246 509.211 263.587 509.562C264.941 509.901 266.354 510.396 267.825 511.047L265.872 515.754C264.557 515.22 263.378 514.81 262.337 514.523C261.295 514.224 260.234 514.074 259.153 514.074C258.398 514.074 257.753 514.198 257.22 514.445C256.686 514.68 256.282 515.018 256.009 515.461C255.735 515.891 255.598 516.392 255.598 516.965C255.598 517.642 255.794 518.215 256.184 518.684C256.588 519.139 257.187 519.582 257.981 520.012C258.789 520.441 259.791 520.943 260.989 521.516C262.447 522.206 263.691 522.928 264.72 523.684C265.761 524.426 266.562 525.305 267.122 526.32C267.682 527.323 267.962 528.573 267.962 530.07ZM301.98 509.445V527.922C301.98 529.888 301.543 531.665 300.671 533.254C299.812 534.829 298.503 536.079 296.745 537.004C295.001 537.928 292.8 538.391 290.144 538.391C286.368 538.391 283.49 537.427 281.511 535.5C279.532 533.573 278.542 531.021 278.542 527.844V509.445H284.577V526.926C284.577 529.283 285.059 530.936 286.023 531.887C286.986 532.837 288.412 533.312 290.3 533.312C291.628 533.312 292.702 533.085 293.523 532.629C294.356 532.173 294.968 531.47 295.359 530.52C295.749 529.569 295.945 528.358 295.945 526.887V509.445H301.98ZM322.892 509.445C325.483 509.445 327.619 509.758 329.298 510.383C330.991 511.008 332.248 511.952 333.068 513.215C333.888 514.478 334.298 516.073 334.298 518C334.298 519.302 334.051 520.441 333.556 521.418C333.061 522.395 332.41 523.221 331.603 523.898C330.796 524.576 329.923 525.129 328.986 525.559L337.384 538H330.666L323.849 527.043H320.627V538H314.572V509.445H322.892ZM322.462 514.406H320.627V522.121H322.58C324.585 522.121 326.017 521.789 326.877 521.125C327.749 520.448 328.185 519.458 328.185 518.156C328.185 516.802 327.716 515.839 326.779 515.266C325.854 514.693 324.416 514.406 322.462 514.406ZM368.98 509.445L359.273 538H352.672L342.984 509.445H349.098L354.469 526.438C354.56 526.724 354.71 527.264 354.918 528.059C355.126 528.84 355.335 529.673 355.543 530.559C355.764 531.431 355.914 532.154 355.992 532.727C356.07 532.154 356.207 531.431 356.402 530.559C356.611 529.686 356.812 528.859 357.008 528.078C357.216 527.284 357.366 526.737 357.457 526.438L362.867 509.445H368.98ZM394.639 538H378.194V509.445H394.639V514.406H384.248V520.676H393.916V525.637H384.248V533H394.639V538ZM415.102 521.203L421.059 509.445H427.583L418.11 526.887V538H412.095V527.082L402.622 509.445H409.184L415.102 521.203ZM461.576 509.035C463.112 509.035 464.479 509.276 465.677 509.758C466.875 510.24 467.819 510.943 468.509 511.867C469.212 512.792 469.564 513.918 469.564 515.246C469.564 517.082 469.017 518.625 467.923 519.875C466.843 521.125 465.489 522.219 463.861 523.156L469.408 528.566C469.955 527.668 470.417 526.717 470.795 525.715C471.185 524.712 471.524 523.703 471.81 522.688H478.021C477.617 524.185 477.025 525.786 476.244 527.492C475.476 529.185 474.492 530.78 473.295 532.277L479.173 538H471.81L469.564 535.793C468.796 536.327 467.969 536.789 467.084 537.18C466.211 537.57 465.274 537.87 464.271 538.078C463.282 538.286 462.233 538.391 461.127 538.391C458.965 538.391 457.11 538.052 455.56 537.375C454.011 536.698 452.826 535.754 452.005 534.543C451.185 533.319 450.775 531.9 450.775 530.285C450.775 528.931 450.983 527.772 451.4 526.809C451.817 525.832 452.416 524.979 453.197 524.25C453.978 523.508 454.916 522.824 456.009 522.199C455.319 521.392 454.766 520.637 454.349 519.934C453.946 519.23 453.653 518.534 453.47 517.844C453.301 517.141 453.216 516.405 453.216 515.637C453.216 514.283 453.568 513.117 454.271 512.141C454.987 511.151 455.97 510.389 457.22 509.855C458.483 509.309 459.935 509.035 461.576 509.035ZM459.486 525.754C458.991 526.132 458.555 526.522 458.177 526.926C457.813 527.329 457.533 527.759 457.337 528.215C457.142 528.671 457.045 529.172 457.045 529.719C457.045 530.865 457.474 531.763 458.334 532.414C459.193 533.065 460.261 533.391 461.537 533.391C462.396 533.391 463.197 533.286 463.939 533.078C464.681 532.87 465.358 532.577 465.97 532.199L459.486 525.754ZM461.537 513.645C460.873 513.645 460.235 513.814 459.623 514.152C459.024 514.491 458.724 515.122 458.724 516.047C458.724 516.698 458.893 517.336 459.232 517.961C459.571 518.573 460.02 519.198 460.58 519.836C461.699 519.224 462.559 518.612 463.158 518C463.757 517.375 464.056 516.665 464.056 515.871C464.056 515.077 463.783 514.51 463.236 514.172C462.702 513.82 462.136 513.645 461.537 513.645ZM516.448 538L509.573 515.598H509.397C509.423 516.132 509.462 516.939 509.514 518.02C509.579 519.087 509.638 520.227 509.69 521.438C509.742 522.648 509.768 523.742 509.768 524.719V538H504.358V509.445H512.6L519.358 531.281H519.475L526.643 509.445H534.885V538H529.241V524.484C529.241 523.586 529.254 522.551 529.28 521.379C529.319 520.207 529.364 519.094 529.416 518.039C529.468 516.971 529.508 516.171 529.534 515.637H529.358L521.995 538H516.448ZM565.173 538L563.102 531.203H552.692L550.622 538H544.098L554.177 509.328H561.579L571.696 538H565.173ZM561.657 526.125L559.587 519.484C559.457 519.042 559.281 518.475 559.059 517.785C558.851 517.082 558.636 516.372 558.415 515.656C558.207 514.927 558.037 514.296 557.907 513.762C557.777 514.296 557.595 514.96 557.36 515.754C557.139 516.535 556.924 517.277 556.716 517.98C556.507 518.684 556.358 519.185 556.266 519.484L554.216 526.125H561.657ZM590.03 509.445C593.715 509.445 596.404 510.24 598.097 511.828C599.79 513.404 600.636 515.578 600.636 518.352C600.636 519.602 600.447 520.799 600.07 521.945C599.692 523.078 599.073 524.087 598.214 524.973C597.368 525.858 596.235 526.561 594.816 527.082C593.396 527.59 591.645 527.844 589.562 527.844H586.964V538H580.909V509.445H590.03ZM589.718 514.406H586.964V522.883H588.956C590.089 522.883 591.072 522.733 591.905 522.434C592.739 522.134 593.383 521.665 593.839 521.027C594.295 520.389 594.523 519.569 594.523 518.566C594.523 517.16 594.132 516.118 593.351 515.441C592.57 514.751 591.359 514.406 589.718 514.406ZM620.748 509.445C624.433 509.445 627.121 510.24 628.814 511.828C630.507 513.404 631.353 515.578 631.353 518.352C631.353 519.602 631.164 520.799 630.787 521.945C630.409 523.078 629.791 524.087 628.931 524.973C628.085 525.858 626.952 526.561 625.533 527.082C624.114 527.59 622.362 527.844 620.279 527.844H617.681V538H611.627V509.445H620.748ZM620.435 514.406H617.681V522.883H619.673C620.806 522.883 621.789 522.733 622.623 522.434C623.456 522.134 624.101 521.665 624.556 521.027C625.012 520.389 625.24 519.569 625.24 518.566C625.24 517.16 624.849 516.118 624.068 515.441C623.287 514.751 622.076 514.406 620.435 514.406ZM642.344 538V509.445H648.398V538H642.344ZM686.518 538H678.823L666.401 516.398H666.225C666.277 517.297 666.323 518.202 666.362 519.113C666.401 520.025 666.44 520.936 666.479 521.848C666.518 522.746 666.557 523.651 666.596 524.562V538H661.186V509.445H668.823L681.225 530.832H681.362C681.336 529.947 681.303 529.068 681.264 528.195C681.225 527.323 681.186 526.451 681.147 525.578C681.121 524.706 681.095 523.833 681.069 522.961V509.445H686.518V538ZM710.165 521.965H721.493V536.77C719.996 537.264 718.44 537.661 716.825 537.961C715.21 538.247 713.381 538.391 711.337 538.391C708.498 538.391 706.089 537.831 704.11 536.711C702.131 535.591 700.627 533.938 699.598 531.75C698.57 529.562 698.055 526.874 698.055 523.684C698.055 520.689 698.628 518.098 699.774 515.91C700.933 513.723 702.619 512.03 704.833 510.832C707.059 509.634 709.774 509.035 712.977 509.035C714.488 509.035 715.979 509.198 717.45 509.523C718.921 509.849 720.256 510.272 721.454 510.793L719.442 515.637C718.57 515.194 717.574 514.823 716.454 514.523C715.334 514.224 714.162 514.074 712.938 514.074C711.18 514.074 709.651 514.478 708.348 515.285C707.059 516.092 706.057 517.225 705.341 518.684C704.638 520.129 704.286 521.835 704.286 523.801C704.286 525.663 704.54 527.316 705.048 528.762C705.555 530.194 706.356 531.32 707.45 532.141C708.544 532.948 709.97 533.352 711.727 533.352C712.587 533.352 713.309 533.312 713.895 533.234C714.494 533.143 715.054 533.052 715.575 532.961V527.004H710.165V521.965Z" fill="#FAFAFA"/>
<path d="M31.2 406.608C38.304 406.608 44.512 408.016 49.824 410.832C55.136 413.648 59.232 417.616 62.112 422.736C65.056 427.792 66.528 433.648 66.528 440.304C66.528 446.896 65.056 452.752 62.112 457.872C59.232 462.992 55.104 466.96 49.728 469.776C44.416 472.592 38.24 474 31.2 474H5.952V406.608H31.2ZM30.144 459.792C36.352 459.792 41.184 458.096 44.64 454.704C48.096 451.312 49.824 446.512 49.824 440.304C49.824 434.096 48.096 429.264 44.64 425.808C41.184 422.352 36.352 420.624 30.144 420.624H22.368V459.792H30.144ZM92.118 429.36C94.038 426.416 96.438 424.112 99.318 422.448C102.198 420.72 105.398 419.856 108.918 419.856V437.232H104.406C100.31 437.232 97.238 438.128 95.19 439.92C93.142 441.648 92.118 444.72 92.118 449.136V474H75.702V420.432H92.118V429.36ZM141.149 474.768C135.901 474.768 131.165 473.648 126.941 471.408C122.781 469.168 119.485 465.968 117.053 461.808C114.685 457.648 113.501 452.784 113.501 447.216C113.501 441.712 114.717 436.88 117.148 432.72C119.581 428.496 122.909 425.264 127.133 423.024C131.357 420.784 136.093 419.664 141.341 419.664C146.589 419.664 151.325 420.784 155.549 423.024C159.773 425.264 163.101 428.496 165.533 432.72C167.965 436.88 169.181 441.712 169.181 447.216C169.181 452.72 167.933 457.584 165.437 461.808C163.005 465.968 159.645 469.168 155.357 471.408C151.133 473.648 146.397 474.768 141.149 474.768ZM141.149 460.56C144.285 460.56 146.941 459.408 149.117 457.104C151.357 454.8 152.477 451.504 152.477 447.216C152.477 442.928 151.389 439.632 149.213 437.328C147.101 435.024 144.477 433.872 141.341 433.872C138.141 433.872 135.485 435.024 133.373 437.328C131.261 439.568 130.205 442.864 130.205 447.216C130.205 451.504 131.229 454.8 133.277 457.104C135.389 459.408 138.013 460.56 141.149 460.56ZM210.53 419.856C216.802 419.856 221.794 421.904 225.506 426C229.282 430.032 231.17 435.6 231.17 442.704V474H214.85V444.912C214.85 441.328 213.922 438.544 212.066 436.56C210.21 434.576 207.714 433.584 204.578 433.584C201.442 433.584 198.946 434.576 197.09 436.56C195.234 438.544 194.306 441.328 194.306 444.912V474H177.89V420.432H194.306V427.536C195.97 425.168 198.21 423.312 201.026 421.968C203.842 420.56 207.01 419.856 210.53 419.856ZM293.073 446.352C293.073 447.888 292.977 449.488 292.785 451.152H255.633C255.889 454.48 256.945 457.04 258.801 458.832C260.721 460.56 263.057 461.424 265.809 461.424C269.905 461.424 272.753 459.696 274.353 456.24H291.825C290.929 459.76 289.297 462.928 286.929 465.744C284.625 468.56 281.713 470.768 278.193 472.368C274.673 473.968 270.737 474.768 266.385 474.768C261.137 474.768 256.465 473.648 252.369 471.408C248.273 469.168 245.073 465.968 242.769 461.808C240.465 457.648 239.313 452.784 239.313 447.216C239.313 441.648 240.433 436.784 242.673 432.624C244.977 428.464 248.177 425.264 252.273 423.024C256.369 420.784 261.073 419.664 266.385 419.664C271.569 419.664 276.177 420.752 280.209 422.928C284.241 425.104 287.377 428.208 289.617 432.24C291.921 436.272 293.073 440.976 293.073 446.352ZM276.273 442.032C276.273 439.216 275.313 436.976 273.393 435.312C271.473 433.648 269.073 432.816 266.193 432.816C263.441 432.816 261.105 433.616 259.185 435.216C257.329 436.816 256.177 439.088 255.729 442.032H276.273Z" fill="#D14B03"/>
<path d="M326.117 474.672C321.189 474.672 316.773 473.872 312.869 472.272C308.965 470.672 305.829 468.304 303.461 465.168C301.157 462.032 299.941 458.256 299.813 453.84H317.285C317.541 456.336 318.405 458.256 319.877 459.6C321.349 460.88 323.269 461.52 325.637 461.52C328.069 461.52 329.989 460.976 331.397 459.888C332.805 458.736 333.509 457.168 333.509 455.184C333.509 453.52 332.933 452.144 331.781 451.056C330.693 449.968 329.317 449.072 327.653 448.368C326.053 447.664 323.749 446.864 320.741 445.968C316.389 444.624 312.837 443.28 310.085 441.936C307.333 440.592 304.965 438.608 302.981 435.984C300.997 433.36 300.005 429.936 300.005 425.712C300.005 419.44 302.277 414.544 306.821 411.024C311.365 407.44 317.285 405.648 324.581 405.648C332.005 405.648 337.989 407.44 342.533 411.024C347.077 414.544 349.509 419.472 349.829 425.808H332.069C331.941 423.632 331.141 421.936 329.669 420.72C328.197 419.44 326.309 418.8 324.005 418.8C322.021 418.8 320.421 419.344 319.205 420.432C317.989 421.456 317.381 422.96 317.381 424.944C317.381 427.12 318.405 428.816 320.453 430.032C322.501 431.248 325.701 432.56 330.053 433.968C334.405 435.44 337.925 436.848 340.613 438.192C343.365 439.536 345.733 441.488 347.717 444.048C349.701 446.608 350.693 449.904 350.693 453.936C350.693 457.776 349.701 461.264 347.717 464.4C345.797 467.536 342.981 470.032 339.269 471.888C335.557 473.744 331.173 474.672 326.117 474.672ZM413.692 420.432V474H397.276V466.704C395.612 469.072 393.34 470.992 390.46 472.464C387.644 473.872 384.508 474.576 381.052 474.576C376.956 474.576 373.34 473.68 370.204 471.888C367.068 470.032 364.636 467.376 362.908 463.92C361.18 460.464 360.316 456.4 360.316 451.728V420.432H376.636V449.52C376.636 453.104 377.564 455.888 379.42 457.872C381.276 459.856 383.772 460.848 386.908 460.848C390.108 460.848 392.636 459.856 394.492 457.872C396.348 455.888 397.276 453.104 397.276 449.52V420.432H413.692ZM441.899 429.36C443.819 426.416 446.219 424.112 449.099 422.448C451.979 420.72 455.179 419.856 458.699 419.856V437.232H454.187C450.091 437.232 447.019 438.128 444.971 439.92C442.923 441.648 441.899 444.72 441.899 449.136V474H425.483V420.432H441.899V429.36ZM490.642 458.64L502.258 420.432H519.73L500.722 474H480.466L461.458 420.432H479.026L490.642 458.64ZM577.135 446.352C577.135 447.888 577.04 449.488 576.848 451.152H539.696C539.952 454.48 541.008 457.04 542.864 458.832C544.784 460.56 547.12 461.424 549.872 461.424C553.968 461.424 556.816 459.696 558.416 456.24H575.888C574.992 459.76 573.36 462.928 570.992 465.744C568.688 468.56 565.776 470.768 562.256 472.368C558.736 473.968 554.8 474.768 550.448 474.768C545.2 474.768 540.528 473.648 536.432 471.408C532.336 469.168 529.136 465.968 526.832 461.808C524.528 457.648 523.376 452.784 523.376 447.216C523.376 441.648 524.496 436.784 526.736 432.624C529.04 428.464 532.24 425.264 536.336 423.024C540.432 420.784 545.136 419.664 550.448 419.664C555.632 419.664 560.24 420.752 564.272 422.928C568.304 425.104 571.44 428.208 573.68 432.24C575.984 436.272 577.135 440.976 577.135 446.352ZM560.336 442.032C560.336 439.216 559.376 436.976 557.456 435.312C555.536 433.648 553.136 432.816 550.256 432.816C547.504 432.816 545.168 433.616 543.248 435.216C541.392 436.816 540.24 439.088 539.792 442.032H560.336ZM640.516 420.432L606.916 499.44H589.252L601.54 472.176L579.748 420.432H598.084L610.468 453.936L622.756 420.432H640.516Z" fill="#832F02"/>
<path d="M691.188 427.92C689.972 425.68 688.212 423.984 685.908 422.832C683.668 421.616 681.012 421.008 677.94 421.008C672.628 421.008 668.372 422.768 665.172 426.288C661.972 429.744 660.372 434.384 660.372 440.208C660.372 446.416 662.036 451.28 665.364 454.8C668.756 458.256 673.396 459.984 679.284 459.984C683.316 459.984 686.708 458.96 689.46 456.912C692.276 454.864 694.324 451.92 695.604 448.08H674.772V435.984H710.484V451.248C709.268 455.344 707.188 459.152 704.244 462.672C701.364 466.192 697.684 469.04 693.204 471.216C688.724 473.392 683.668 474.48 678.036 474.48C671.38 474.48 665.428 473.04 660.18 470.16C654.996 467.216 650.932 463.152 647.988 457.968C645.108 452.784 643.668 446.864 643.668 440.208C643.668 433.552 645.108 427.632 647.988 422.448C650.932 417.2 654.996 413.136 660.18 410.256C665.364 407.312 671.284 405.84 677.94 405.84C686.004 405.84 692.788 407.792 698.292 411.696C703.86 415.6 707.54 421.008 709.332 427.92H691.188ZM777.945 406.608V474H761.529V446.256H735.993V474H719.577V406.608H735.993V433.008H761.529V406.608H777.945Z" fill="white"/>
<line x1="9" y1="523" x2="47" y2="523" stroke="#D2D1D1" stroke-width="2"/>
<line x1="736" y1="523" x2="778" y2="523" stroke="#D2D1D1" stroke-width="2"/>
</svg>
